<?xml version="1.0" encoding="utf-8"?>
<!-- Generator: Adobe Illustrator 25.4.1, SVG Export Plug-In . SVG Version: 6.00 Build 0)  -->
<svg version="1.1" id="Layer_1" xmlns="http://www.w3.org/2000/svg" xmlns:xlink="http://www.w3.org/1999/xlink" x="0px" y="0px"
	 viewBox="0 0 1150 720" style="enable-background:new 0 0 1150 720;" xml:space="preserve">
<style type="text/css">
	.st0{fill:none;stroke:#D3D3D3;stroke-width:5;}
	.st1{fill:none;stroke:#D3D3D3;}
</style>
<g id="svg_2">
	<path class="st0" d="M575,700"/>
	<path class="st0" d="M575,20"/>
	<path class="st0" d="M1100,20"/>
	<path class="st0" d="M1100,700"/>
	<path class="st0" d="M50,700"/>
	<path class="st0" d="M50,20"/>
	<path class="st0" d="M575,20"/>
</g>
<g id="svg_3">
	<path class="st0" d="M575,451.5"/>
	<path class="st0" d="M575,268.5"/>
</g>
<g id="svg_4">
	<path class="st1" d="M575,362"/>
	<path class="st1" d="M575,358"/>
</g>
<g id="svg_9">
	<path class="st0" d="M50,451.6"/>
	<path class="st0" d="M105,451.6"/>
	<path class="st0" d="M105,269.4"/>
	<path class="st0" d="M50,269.4"/>
</g>
<g id="svg_10">
	<path class="st0" d="M1100,451.6"/>
	<path class="st0" d="M1045,451.6"/>
	<path class="st0" d="M1045,269.4"/>
	<path class="st0" d="M1100,269.4"/>
</g>
<g id="svg_11">
	<path class="st0" d="M50,561.6"/>
	<path class="st0" d="M215,561.6"/>
	<path class="st0" d="M215,159.4"/>
	<path class="st0" d="M50,159.4"/>
</g>
<g id="svg_12">
	<path class="st0" d="M1100,561.6"/>
	<path class="st0" d="M935,561.6"/>
	<path class="st0" d="M935,159.4"/>
	<path class="st0" d="M1100,159.4"/>
</g>
<g id="svg_13">
	<path class="st0" d="M215,433.1"/>
	<path class="st0" d="M215,286.9"/>
</g>
<g id="svg_14">
	<path class="st0" d="M935,433.1"/>
	<path class="st0" d="M935,286.9"/>
</g>
</svg>
